<svg width="80" height="80" viewBox="0 0 80 80" fill="none" xmlns="http://www.w3.org/2000/svg">
<path d="M36.9013 39.5941C30.5122 39.6448 24.1231 39.6855 17.7341 39.7541C16.4606 39.7681 15.1853 39.8662 13.917 39.9885C13.7072 40.0109 13.5091 40.0949 13.3487 40.2295C13.1883 40.3641 13.0731 40.5431 13.018 40.7431C12.9139 41.0632 13.276 41.5173 13.7085 41.5841C14.1279 41.6488 14.5452 41.7492 14.9667 41.7741C17.6588 41.9342 20.3506 42.1608 23.0452 42.2086C28.5812 42.3062 34.1188 42.3309 39.656 42.3371C44.9093 42.343 50.1629 42.2785 55.4163 42.2667C56.2598 42.2646 57.1037 42.3689 57.9459 42.4427C58.0017 42.4562 58.0533 42.4833 58.0957 42.5215C58.1381 42.5597 58.1701 42.6076 58.1887 42.6611C58.2038 42.7887 58.1654 43.0041 58.0789 43.0498C56.4646 43.911 54.8701 44.8169 53.2101 45.5855C49.3483 47.3734 45.7256 49.5658 42.1054 51.7655C41.5105 52.127 40.887 52.4943 40.647 53.2116C40.6034 53.3421 40.5354 53.5658 40.5908 53.6094C40.7894 53.7912 41.0308 53.9218 41.2934 53.9897C41.573 54.0221 41.8563 53.9776 42.1117 53.8612C43.0163 53.4592 43.9143 53.0396 44.7945 52.5887C51.0846 49.3659 57.3729 46.1396 63.6592 42.9097C66.0336 41.6977 67.1619 40.5226 64.3117 37.858C63.4905 37.09 62.6598 36.323 61.7669 35.64C57.6257 32.4692 53.4694 29.3178 49.298 26.1858C48.7244 25.7818 48.1196 25.4225 47.489 25.111C47.0778 24.892 46.666 25.0219 46.3109 25.2846C45.9201 25.5739 45.6776 26.4146 45.8122 26.7844C46.1117 27.6053 46.7082 28.2076 47.3488 28.7529C49.8153 30.8525 52.295 32.937 54.7878 35.0064C56.4077 36.3587 58.0447 37.6911 59.662 39.0462C59.742 39.1129 59.7459 39.3206 59.7135 39.4454C59.6923 39.4994 59.658 39.5476 59.6136 39.5858C59.5692 39.6239 59.516 39.6509 59.4586 39.6645C58.6132 39.7189 57.7664 39.7882 56.9204 39.7838C50.2471 39.7492 43.5738 39.7061 36.9005 39.6544L36.9013 39.5941Z" fill="black"/>
</svg>
