<svg width="80" height="80" viewBox="0 0 80 80" fill="none" xmlns="http://www.w3.org/2000/svg">
<path d="M40.0975 43.0987C40.15 49.4878 40.1921 55.8769 40.2631 62.2659C40.2775 63.5394 40.379 64.8147 40.5056 66.083C40.5287 66.2928 40.6156 66.4909 40.7549 66.6513C40.8941 66.8117 41.0793 66.9269 41.2862 66.982C41.6173 67.0861 42.0871 66.724 42.1562 66.2915C42.2234 65.8721 42.327 65.4548 42.3528 65.0333C42.5183 62.3412 42.7528 59.6494 42.8022 56.9548C42.9032 51.4188 42.9285 45.8812 42.9349 40.344C42.941 35.0907 42.8746 29.8371 42.862 24.5837C42.8601 23.7402 42.9678 22.8962 43.0442 22.0541C43.0582 21.9983 43.0863 21.9467 43.1257 21.9043C43.1652 21.8619 43.2148 21.8299 43.2701 21.8113C43.4023 21.7962 43.6249 21.8346 43.6722 21.9211C44.5633 23.5354 45.5005 25.1299 46.2955 26.7899C48.1449 30.6517 50.4129 34.2744 52.6885 37.8946C53.0624 38.4894 53.4423 39.113 54.1844 39.353C54.3194 39.3966 54.5508 39.4646 54.596 39.4092C54.7839 39.2105 54.9191 38.9692 54.9894 38.7066C55.0228 38.427 54.9769 38.1437 54.8567 37.8883C54.4406 36.9837 54.0065 36.0856 53.54 35.2055C50.2061 28.9153 46.8523 22.6355 43.5274 16.3408C42.2737 13.9663 41.0579 12.8381 38.3014 15.6884C37.5071 16.5095 36.7135 17.3402 36.0069 18.2331C32.7268 22.3743 29.4667 26.5306 26.2266 30.7021C25.8089 31.2757 25.4372 31.8805 25.1148 32.5109C24.8882 32.9222 25.0228 33.334 25.2944 33.6891C25.5936 34.0799 26.4636 34.3224 26.8461 34.1877C27.6953 33.8883 28.3184 33.2918 28.8825 32.6512C31.0545 30.1847 33.2108 27.705 35.3514 25.2122C36.7504 23.5923 38.1287 21.9553 39.5305 20.338C39.5998 20.258 39.8144 20.2541 39.9435 20.2864C39.9994 20.3077 40.0492 20.342 40.0887 20.3864C40.1282 20.4308 40.1561 20.484 40.1701 20.5414C40.2267 21.3865 40.2981 22.2335 40.2936 23.0796C40.2578 29.7529 40.2132 36.4262 40.1597 43.0994L40.0975 43.0987Z" fill="black"/>
</svg>
