<svg width="80" height="80" viewBox="0 0 80 80" fill="none" xmlns="http://www.w3.org/2000/svg">
<path d="M40.0975 37.9018C40.15 31.5126 40.1921 25.1232 40.2631 18.7343C40.2777 17.4607 40.379 16.1853 40.5055 14.9173C40.5287 14.7074 40.6155 14.5093 40.7548 14.3488C40.8941 14.1884 41.0793 14.0731 41.2862 14.018C41.6173 13.9139 42.0871 14.2762 42.1562 14.7087C42.2234 15.1281 42.327 15.5452 42.3527 15.967C42.5183 18.6593 42.7527 21.3509 42.8022 24.0458C42.9032 29.5816 42.9285 35.1195 42.9349 40.6565C42.941 45.9101 42.8746 51.1635 42.862 56.4172C42.8602 57.2605 42.9678 58.1047 43.0442 58.9468C43.0582 59.0027 43.0862 59.0542 43.1257 59.0966C43.1652 59.139 43.2148 59.171 43.2701 59.1896C43.4023 59.2048 43.6249 59.1663 43.6722 59.0799C44.5633 57.4653 45.5005 55.871 46.2955 54.2098C48.1449 50.348 50.4129 46.7252 52.6885 43.1051C53.0625 42.5102 53.4423 41.8868 54.1844 41.6468C54.3195 41.6033 54.5508 41.5352 54.596 41.5907C54.784 41.7892 54.9191 42.0305 54.9894 42.293C55.0229 42.5727 54.9769 42.8561 54.8566 43.1116C54.4406 44.0161 54.0065 44.914 53.54 45.7943C50.2061 52.0844 46.8524 58.3643 43.5275 64.6593C42.2737 67.0337 41.0579 68.1618 38.3014 65.3117C37.5071 64.4906 36.7135 63.6599 36.0069 62.7669C32.7268 58.6256 29.4667 54.4692 26.2266 50.2979C25.8089 49.7242 25.4372 49.1194 25.1148 48.4889C24.8882 48.0777 25.0228 47.6659 25.2943 47.3108C25.5936 46.9198 26.4636 46.6772 26.8461 46.8122C27.6953 47.1116 28.3184 47.7079 28.8825 48.3487C31.0545 50.815 33.2108 53.2946 35.3514 55.7876C36.7503 57.4075 38.1287 59.0447 39.5305 60.6621C39.5998 60.7418 39.8144 60.746 39.9435 60.7133C39.9994 60.6921 40.0492 60.6578 40.0886 60.6135C40.1281 60.5691 40.1561 60.516 40.1701 60.4587C40.2267 59.6133 40.2981 58.7662 40.2936 57.9201C40.258 51.2466 40.2133 44.5734 40.1597 37.9004L40.0975 37.9018Z" fill="black"/>
</svg>
