<svg width="80" height="80" viewBox="0 0 80 80" fill="none" xmlns="http://www.w3.org/2000/svg">
<path d="M42.0987 40.594C48.4878 40.6448 54.8769 40.6855 61.2659 40.7541C62.5394 40.768 63.8147 40.8661 65.083 40.9885C65.2928 41.0108 65.4909 41.0949 65.6513 41.2295C65.8117 41.3641 65.9269 41.5431 65.982 41.7431C66.0861 42.0632 65.724 42.5173 65.2915 42.5841C64.8721 42.6488 64.4548 42.7492 64.0332 42.7741C61.3412 42.9342 58.6494 43.1608 55.9548 43.2085C50.4188 43.3062 44.8812 43.3309 39.344 43.3371C34.0907 43.343 28.8371 43.2787 23.5837 43.2666C22.7402 43.2646 21.8962 43.3688 21.0541 43.4427C20.9982 43.4562 20.9467 43.4833 20.9043 43.5215C20.8619 43.5596 20.8299 43.6076 20.8113 43.6611C20.7962 43.7887 20.8346 44.0041 20.9211 44.0498C22.5354 44.911 24.1299 45.8169 25.7899 46.5854C29.6517 48.3734 33.2744 50.5658 36.8946 52.7655C37.4895 53.127 38.113 53.4943 38.353 54.2116C38.3966 54.3421 38.4646 54.5658 38.4092 54.6094C38.2105 54.7911 37.9692 54.9218 37.7066 54.9897C37.427 55.0221 37.1437 54.9777 36.8882 54.8614C35.9837 54.4592 35.0856 54.0396 34.2055 53.5887C27.9141 50.3659 21.6355 47.1239 15.3408 43.9099C12.9664 42.6979 11.8381 41.5226 14.6883 38.858C15.5095 38.0899 16.3402 37.323 17.2331 36.64C21.3743 33.4692 25.5306 30.3178 29.702 27.1857C30.2756 26.7818 30.8804 26.4224 31.511 26.111C31.9222 25.8919 32.3339 26.022 32.6891 26.2846C33.0798 26.5738 33.3224 27.4146 33.1877 27.7843C32.8883 28.6052 32.2918 29.2075 31.6512 29.7529C29.1847 31.8525 26.705 33.937 24.2122 36.0064C22.5923 37.3587 20.9553 38.6911 19.3379 40.0461C19.258 40.1131 19.2541 40.3205 19.2865 40.4454C19.3077 40.4994 19.342 40.5476 19.3864 40.5857C19.4308 40.6239 19.484 40.6509 19.5414 40.6644C20.3865 40.7189 21.2335 40.7881 22.0796 40.7838C28.7529 40.7492 35.4262 40.7061 42.0994 40.6544L42.0987 40.594Z" fill="black"/>
</svg>
