<svg width="212" height="180" viewBox="0 0 212 180" fill="none" xmlns="http://www.w3.org/2000/svg">
<path d="M12.9944 24.9397C12.9944 24.9397 8.5587 29.311 7.03875 32.8751C5.68756 36.0434 5.65425 40.8867 5.76825 43.6324C5.82615 45.0271 6.0728 46.403 6.40693 47.7583L21.0539 107.172L33.49 103.945L12.9944 24.9397Z" fill="#D9D9D9"/>
<rect width="26.1823" height="11.1779" transform="matrix(-0.965926 0.258819 0.258819 0.965926 31.5732 74.8193)" fill="#1E1E1E"/>
<path d="M129.036 166.265C132.626 168.18 131.605 169.953 132.059 176.845" stroke="#1E1E1E" stroke-width="5" stroke-linecap="round"/>
<path d="M86.7139 166.265C90.3037 168.18 89.2834 169.953 89.7369 176.845" stroke="#1E1E1E" stroke-width="5" stroke-linecap="round"/>
<path d="M185.717 111.473C185.717 156.342 151.543 171.555 109.386 171.555C67.2301 171.555 33.0557 156.342 33.0557 111.473C33.0557 66.6038 67.2301 0 109.386 0C151.543 0 185.717 66.6038 185.717 111.473Z" fill="#6E1BD7"/>
<circle cx="84.4467" cy="68.0175" r="7.5575" fill="#1E1E1E"/>
<circle cx="134.326" cy="68.0175" r="7.5575" fill="#1E1E1E"/>
<rect x="76.7676" y="45.345" width="25.6955" height="6.80175" transform="rotate(25.2502 76.7676 45.345)" fill="#1E1E1E"/>
<rect width="25.6955" height="6.80175" transform="matrix(0.904453 -0.426573 -0.426573 -0.904453 124.38 59.4348)" fill="#1E1E1E"/>
<path d="M98.8059 104.168C103.844 99.13 115.961 92.0763 124.124 104.168" stroke="#1E1E1E" stroke-width="5" stroke-linecap="round"/>
<path d="M24.7424 97.4723C29.7132 102.07 41.3286 110.538 48.0243 107.628" stroke="#1E1E1E" stroke-width="5" stroke-linecap="round"/>
<path d="M209 119.638C202.02 112.784 186.381 99.8292 179.671 102.841" stroke="#1E1E1E" stroke-width="5" stroke-linecap="round"/>
</svg>
