<svg width="225" height="180" viewBox="0 0 225 180" fill="none" xmlns="http://www.w3.org/2000/svg">
<path d="M212.433 24.9398C212.433 24.9398 216.869 29.3111 218.389 32.8752C219.74 36.0436 219.773 40.8868 219.659 43.6325C219.601 45.0273 219.355 46.4031 219.021 47.7584L204.374 107.172L191.938 103.946L212.433 24.9398Z" fill="#D9D9D9"/>
<rect width="26.1823" height="11.1779" transform="translate(192.563 74.8192) rotate(15)" fill="#1E1E1E"/>
<path d="M123.164 166.265C126.754 168.18 125.734 169.953 126.187 176.845" stroke="#1E1E1E" stroke-width="5" stroke-linecap="round"/>
<path d="M80.8423 166.265C84.4321 168.18 83.4118 169.953 83.8653 176.845" stroke="#1E1E1E" stroke-width="5" stroke-linecap="round"/>
<path d="M182.113 111.473C182.113 156.342 147.938 171.555 105.782 171.555C63.6256 171.555 29.4512 156.342 29.4512 111.473C29.4512 66.6038 63.6256 0 105.782 0C147.938 0 182.113 66.6038 182.113 111.473Z" fill="#FD9800"/>
<circle cx="83.8651" cy="68.0175" r="7.5575" fill="#1E1E1E"/>
<circle cx="133.745" cy="68.0175" r="7.5575" fill="#1E1E1E"/>
<rect x="70.896" y="43.0778" width="25.6955" height="6.80175" transform="rotate(25.2502 70.896 43.0778)" fill="#1E1E1E"/>
<rect width="25.6955" height="6.80175" transform="matrix(0.904453 -0.426573 -0.426573 -0.904453 123.798 59.4348)" fill="#1E1E1E"/>
<path d="M95.2014 104.293C100.24 99.255 112.357 92.2013 120.519 104.293" stroke="#1E1E1E" stroke-width="5" stroke-linecap="round"/>
<path d="M3 119.408C12.5728 117.393 32.0208 111.549 33.23 104.293" stroke="#1E1E1E" stroke-width="5" stroke-linecap="round"/>
<path d="M178.048 111.495C184.691 107.333 197.827 98.1007 197.228 94.4686" stroke="#1E1E1E" stroke-width="5" stroke-linecap="round"/>
</svg>
